#N canvas 0 98 450 300 12;
#X obj 12 19 inlet;
#X obj 94 19 inlet;
#X obj 672 46 loadbang;
#X msg 672 71 1;
#X obj 672 96 metro 200;
#X obj 672 121 random 50;
#X obj 609 121 loadbang;
#X msg 609 146 1;
#X obj 609 171 metro 500;
#X obj 672 146 + 50;
#X obj 850 46 r \$0-randtrig;
#X obj 850 71 del 5;
#X msg 850 96 0 45;
#X obj 750 46 r \$0-randtrig;
#X msg 750 71 1 5;
#X obj 850 121 line~;
#X obj 850 146 s~ \$0-envel;
#X obj 12 44 s \$0-noten;
#X obj 538 46 loadbang;
#X msg 538 71 1;
#X obj 538 96 metro 200;
#X obj 538 121 random 50;
#X obj 475 121 loadbang;
#X msg 475 146 1;
#X obj 475 171 metro 500;
#X obj 538 146 + 50;
#X obj 404 45 loadbang;
#X msg 404 70 1;
#X obj 404 95 metro 200;
#X obj 404 120 random 50;
#X obj 341 120 loadbang;
#X msg 341 145 1;
#X obj 341 170 metro 500;
#X obj 404 145 + 50;
#X obj 271 45 loadbang;
#X msg 271 70 1;
#X obj 271 95 metro 200;
#X obj 271 120 random 50;
#X obj 208 120 loadbang;
#X msg 208 145 1;
#X obj 208 170 metro 500;
#X obj 271 145 + 50;
#X obj 208 195 s \$0-randtrig;
#X obj 341 195 s \$0-randtrig2;
#X obj 475 196 s \$0-randtrig3;
#X obj 609 196 s \$0-randtrig4;
#X obj 1164 46 r \$0-noten;
#X obj 1164 71 mtof~;
#X obj 1164 96 phasor~;
#X obj 1057 71 del 5;
#X msg 1057 96 0 45;
#X msg 950 71 1 5;
#X obj 1057 121 line~;
#X obj 1057 146 s~ \$0-envel2;
#X obj 950 46 r \$0-randtrig2;
#X obj 1057 46 r \$0-randtrig2;
#X obj 750 196 r \$0-randtrig3;
#X obj 750 221 random 1000;
#X obj 750 246 / 1000;
#X obj 750 271 sig~;
#X obj 750 296 s~ \$0-rvelo1;
#X obj 857 221 random 1000;
#X obj 857 246 / 1000;
#X obj 857 271 sig~;
#X obj 857 296 s~ \$0-rvelo2;
#X obj 857 196 r \$0-randtrig4;
#X obj 1164 121 s~ \$0-snd;
#X obj 208 267 r~ \$0-envel;
#X obj 226 292 r~ \$0-rvelo1;
#X obj 244 317 r \$0-velo;
#X obj 226 340 *~;
#X obj 208 364 *~;
#X obj 226 387 r~ \$0-snd;
#X obj 94 44 / 127;
#X obj 94 69 s \$0-velo;
#X obj 208 411 *~;
#X obj 208 436 outlet~;
#X obj 355 317 r \$0-velo;
#X obj 337 340 *~;
#X obj 319 364 *~;
#X obj 337 387 r~ \$0-snd;
#X obj 319 411 *~;
#X obj 319 436 outlet~;
#X obj 319 267 r~ \$0-envel2;
#X obj 337 292 r~ \$0-rvelo2;
#X connect 0 0 17 0;
#X connect 1 0 73 0;
#X connect 2 0 3 0;
#X connect 3 0 4 0;
#X connect 4 0 5 0;
#X connect 5 0 9 0;
#X connect 6 0 7 0;
#X connect 7 0 8 0;
#X connect 8 0 45 0;
#X connect 9 0 8 1;
#X connect 10 0 11 0;
#X connect 11 0 12 0;
#X connect 12 0 15 0;
#X connect 13 0 14 0;
#X connect 14 0 15 0;
#X connect 15 0 16 0;
#X connect 18 0 19 0;
#X connect 19 0 20 0;
#X connect 20 0 21 0;
#X connect 21 0 25 0;
#X connect 22 0 23 0;
#X connect 23 0 24 0;
#X connect 24 0 44 0;
#X connect 25 0 24 1;
#X connect 26 0 27 0;
#X connect 27 0 28 0;
#X connect 28 0 29 0;
#X connect 29 0 33 0;
#X connect 30 0 31 0;
#X connect 31 0 32 0;
#X connect 32 0 43 0;
#X connect 33 0 32 1;
#X connect 34 0 35 0;
#X connect 35 0 36 0;
#X connect 36 0 37 0;
#X connect 37 0 41 0;
#X connect 38 0 39 0;
#X connect 39 0 40 0;
#X connect 40 0 42 0;
#X connect 41 0 40 1;
#X connect 46 0 47 0;
#X connect 47 0 48 0;
#X connect 48 0 66 0;
#X connect 49 0 50 0;
#X connect 50 0 52 0;
#X connect 51 0 52 0;
#X connect 52 0 53 0;
#X connect 54 0 51 0;
#X connect 55 0 49 0;
#X connect 56 0 57 0;
#X connect 57 0 58 0;
#X connect 58 0 59 0;
#X connect 59 0 60 0;
#X connect 61 0 62 0;
#X connect 62 0 63 0;
#X connect 63 0 64 0;
#X connect 65 0 61 0;
#X connect 67 0 71 0;
#X connect 68 0 70 0;
#X connect 69 0 70 1;
#X connect 70 0 71 1;
#X connect 71 0 75 0;
#X connect 72 0 75 1;
#X connect 73 0 74 0;
#X connect 75 0 76 0;
#X connect 77 0 78 1;
#X connect 78 0 79 1;
#X connect 79 0 81 0;
#X connect 80 0 81 1;
#X connect 81 0 82 0;
#X connect 83 0 79 0;
#X connect 84 0 78 0;
