#N canvas 1920 98 1920 982 12;
#N canvas 1920 98 1920 982 volume 0;
#X obj -3 30 inlet~;
#X obj -3 55 *~;
#X obj 107 124 vsl 15 128 0 1 0 0 empty empty empty 0 -9 0 10 -262144
-1 -1 5200 1;
#X obj -3 108 outlet~;
#X obj 260 27 inlet~;
#X obj 260 52 *~;
#X obj 260 77 outlet~;
#X obj 127 124 vu 15 120 empty empty -1 -8 0 4 -66577 -1 1 0;
#X obj 164 125 vu 15 120 empty empty -1 -8 0 4 -66577 -1 1 0;
#X obj 163 65 env~;
#X obj 126 65 env~;
#X obj 107 284 t b f;
#X obj 107 309 pack b f;
#X msg 107 334 set \$2;
#X msg 107 359 0.409449;
#X obj 41 335 loadbang;
#X obj 107 384 s \$0-init;
#X obj 107 23 r \$0-init;
#X obj 126 90 log;
#X obj 163 90 log;
#X connect 0 0 1 0;
#X connect 1 0 3 0;
#X connect 1 0 10 0;
#X connect 2 0 1 1;
#X connect 2 0 5 1;
#X connect 2 0 11 0;
#X connect 4 0 5 0;
#X connect 5 0 6 0;
#X connect 5 0 9 0;
#X connect 9 0 19 0;
#X connect 10 0 18 0;
#X connect 11 0 12 0;
#X connect 11 1 12 1;
#X connect 12 0 13 0;
#X connect 13 0 14 0;
#X connect 14 0 16 0;
#X connect 15 0 14 0;
#X connect 17 0 2 0;
#X connect 18 0 7 0;
#X connect 19 0 8 0;
#X coords 0 -1 1 1 116 165 1 100 100;
#X restore 190 357 pd volume;
#X obj 190 307 notein 1, f 16;
#X obj 190 527 dac~ 1 2, f 16;
#N canvas 1920 98 1920 982 volume 0;
#X obj -3 30 inlet~;
#X obj -3 55 *~;
#X obj 107 124 vsl 15 128 0 1 0 0 empty empty empty 0 -9 0 10 -262144
-1 -1 5200 1;
#X obj -3 108 outlet~;
#X obj 260 27 inlet~;
#X obj 260 52 *~;
#X obj 260 77 outlet~;
#X obj 127 124 vu 15 120 empty empty -1 -8 0 4 -66577 -1 1 0;
#X obj 164 125 vu 15 120 empty empty -1 -8 0 4 -66577 -1 1 0;
#X obj 163 65 env~;
#X obj 126 65 env~;
#X obj 107 284 t b f;
#X obj 107 309 pack b f;
#X msg 107 334 set \$2;
#X msg 107 359 0.409449;
#X obj 41 335 loadbang;
#X obj 107 384 s \$0-init;
#X obj 107 23 r \$0-init;
#X obj 126 90 log;
#X obj 163 90 log;
#X connect 0 0 1 0;
#X connect 1 0 3 0;
#X connect 1 0 10 0;
#X connect 2 0 1 1;
#X connect 2 0 5 1;
#X connect 2 0 11 0;
#X connect 4 0 5 0;
#X connect 5 0 6 0;
#X connect 5 0 9 0;
#X connect 9 0 19 0;
#X connect 10 0 18 0;
#X connect 11 0 12 0;
#X connect 11 1 12 1;
#X connect 12 0 13 0;
#X connect 13 0 14 0;
#X connect 14 0 16 0;
#X connect 15 0 14 0;
#X connect 17 0 2 0;
#X connect 18 0 7 0;
#X connect 19 0 8 0;
#X coords 0 -1 1 1 117 163 1 100 100;
#X restore 310 358 pd volume;
#X obj 310 308 notein 2, f 16;
#X obj 311 528 dac~ 3 4, f 16;
#N canvas 1920 98 1920 982 volume 0;
#X obj -3 30 inlet~;
#X obj -3 55 *~;
#X obj 107 124 vsl 15 128 0 1 0 0 empty empty empty 0 -9 0 10 -262144
-1 -1 5200 1;
#X obj -3 108 outlet~;
#X obj 260 27 inlet~;
#X obj 260 52 *~;
#X obj 260 77 outlet~;
#X obj 127 124 vu 15 120 empty empty -1 -8 0 4 -66577 -1 1 0;
#X obj 164 125 vu 15 120 empty empty -1 -8 0 4 -66577 -1 1 0;
#X obj 163 65 env~;
#X obj 126 65 env~;
#X obj 107 284 t b f;
#X obj 107 309 pack b f;
#X msg 107 334 set \$2;
#X msg 107 359 0.409449;
#X obj 41 335 loadbang;
#X obj 107 384 s \$0-init;
#X obj 107 23 r \$0-init;
#X obj 126 90 log;
#X obj 163 90 log;
#X connect 0 0 1 0;
#X connect 1 0 3 0;
#X connect 1 0 10 0;
#X connect 2 0 1 1;
#X connect 2 0 5 1;
#X connect 2 0 11 0;
#X connect 4 0 5 0;
#X connect 5 0 6 0;
#X connect 5 0 9 0;
#X connect 9 0 19 0;
#X connect 10 0 18 0;
#X connect 11 0 12 0;
#X connect 11 1 12 1;
#X connect 12 0 13 0;
#X connect 13 0 14 0;
#X connect 14 0 16 0;
#X connect 15 0 14 0;
#X connect 17 0 2 0;
#X connect 18 0 7 0;
#X connect 19 0 8 0;
#X coords 0 -1 1 1 117 163 1 100 100;
#X restore 430 358 pd volume;
#X obj 430 308 notein 3, f 16;
#X obj 431 528 dac~ 5 6, f 16;
#X obj 190 332 geigerinstru, f 16;
#X obj 430 333 geigerinstru, f 16;
#N canvas 1920 98 1920 982 volume 0;
#X obj -3 30 inlet~;
#X obj -3 55 *~;
#X obj 107 124 vsl 15 128 0 1 0 0 empty empty empty 0 -9 0 10 -262144
-1 -1 5200 1;
#X obj -3 108 outlet~;
#X obj 260 27 inlet~;
#X obj 260 52 *~;
#X obj 260 77 outlet~;
#X obj 127 124 vu 15 120 empty empty -1 -8 0 4 -66577 -1 1 0;
#X obj 164 125 vu 15 120 empty empty -1 -8 0 4 -66577 -1 1 0;
#X obj 163 65 env~;
#X obj 126 65 env~;
#X obj 107 284 t b f;
#X obj 107 309 pack b f;
#X msg 107 334 set \$2;
#X msg 107 359 0.409449;
#X obj 41 335 loadbang;
#X obj 107 384 s \$0-init;
#X obj 107 23 r \$0-init;
#X obj 126 90 log;
#X obj 163 90 log;
#X connect 0 0 1 0;
#X connect 1 0 3 0;
#X connect 1 0 10 0;
#X connect 2 0 1 1;
#X connect 2 0 5 1;
#X connect 2 0 11 0;
#X connect 4 0 5 0;
#X connect 5 0 6 0;
#X connect 5 0 9 0;
#X connect 9 0 19 0;
#X connect 10 0 18 0;
#X connect 11 0 12 0;
#X connect 11 1 12 1;
#X connect 12 0 13 0;
#X connect 13 0 14 0;
#X connect 14 0 16 0;
#X connect 15 0 14 0;
#X connect 17 0 2 0;
#X connect 18 0 7 0;
#X connect 19 0 8 0;
#X coords 0 -1 1 1 117 163 1 100 100;
#X restore 556 358 pd volume;
#X obj 556 333 geigerinstru, f 16;
#X obj 556 308 notein 4, f 16;
#X obj 557 528 dac~ 7 8, f 16;
#X obj 310 333 geigerinstru, f 16;
#X connect 0 0 2 0;
#X connect 0 1 2 1;
#X connect 1 0 9 0;
#X connect 1 1 9 1;
#X connect 3 0 5 0;
#X connect 3 1 5 1;
#X connect 4 0 15 0;
#X connect 4 1 15 1;
#X connect 6 0 8 0;
#X connect 6 1 8 1;
#X connect 7 0 10 0;
#X connect 7 1 10 1;
#X connect 9 0 0 0;
#X connect 9 1 0 1;
#X connect 10 0 6 0;
#X connect 10 1 6 1;
#X connect 11 0 14 0;
#X connect 11 1 14 1;
#X connect 12 0 11 0;
#X connect 12 1 11 1;
#X connect 13 0 12 0;
#X connect 13 1 12 1;
#X connect 15 0 3 0;
#X connect 15 1 3 1;
